<?xml version="1.0" encoding="UTF-8"?>
<svg xmlns="http://www.w3.org/2000/svg" xmlns:xlink="http://www.w3.org/1999/xlink" width="60pt" height="60pt" viewBox="0 0 60 60" version="1.1">
<g id="surface1">
<path style=" stroke:none;fill-rule:nonzero;fill:rgb(50.196078%,75.294118%,89.411765%);fill-opacity:1;" d="M 3.445312 32.554688 C -8.820312 10.324219 14.421875 -5.578125 29.988281 10.902344 C 50.722656 -11.046875 85.070312 24.449219 31.007812 55.828125 C 30.371094 56.195312 29.605469 56.195312 28.96875 55.828125 C 28.453125 55.527344 27.945312 55.226562 27.445312 54.925781 L 17.878906 42.019531 Z M 3.445312 32.554688 "/>
<path style=" stroke:none;fill-rule:nonzero;fill:rgb(35.686275%,62.745098%,82.745098%);fill-opacity:1;" d="M 29.09375 55.894531 C 29.257812 55.976562 29.4375 56.035156 29.617188 56.066406 C 29.753906 56.09375 29.886719 56.105469 30.019531 56.101562 C 28.898438 55.414062 27.820312 54.722656 26.78125 54.027344 L 27.445312 54.925781 C 27.695312 55.078125 27.945312 55.226562 28.203125 55.378906 C 28.457031 55.527344 29.050781 55.871094 29.09375 55.894531 Z M 29.09375 55.894531 "/>
<path style=" stroke:none;fill-rule:nonzero;fill:rgb(91.372549%,91.372549%,91.372549%);fill-opacity:1;" d="M 44.109375 38.703125 C 42.128906 40.691406 34.5 48.097656 27.445312 54.925781 C 14.890625 47.390625 7.359375 39.648438 3.445312 32.554688 C 9.484375 26.417969 18.203125 17.589844 20.710938 15.125 C 22.878906 12.972656 26.117188 12.714844 27.941406 14.554688 C 28.738281 15.355469 29.132812 16.425781 29.144531 17.558594 C 29.273438 17.402344 29.410156 17.253906 29.554688 17.109375 C 31.726562 14.953125 34.960938 14.699219 36.785156 16.535156 C 38.132812 17.890625 38.332031 20.011719 37.46875 21.894531 C 39.359375 21.046875 41.476562 21.261719 42.820312 22.617188 C 44.644531 24.453125 44.363281 27.691406 42.195312 29.84375 C 42.046875 29.988281 41.898438 30.125 41.742188 30.25 C 42.871094 30.269531 43.941406 30.675781 44.738281 31.476562 C 46.5625 33.316406 46.28125 36.550781 44.109375 38.703125 Z M 44.109375 38.703125 "/>
<path style=" stroke:none;fill-rule:nonzero;fill:rgb(35.686275%,62.745098%,82.745098%);fill-opacity:1;" d="M 22.863281 5.699219 C 19.160156 4.027344 14.914062 3.585938 11.007812 4.800781 C 8.210938 5.664062 5.664062 7.34375 3.769531 9.597656 C 0.539062 13.449219 -0.511719 18.710938 0.253906 23.605469 C 0.261719 23.652344 0.269531 23.695312 0.277344 23.738281 C 0.777344 26.835938 1.933594 29.8125 3.445312 32.554688 L 7.578125 35.265625 C 7.402344 34.964844 7.230469 34.664062 7.0625 34.363281 C -3.144531 15.863281 11.246094 1.742188 25.335938 7.035156 C 24.542969 6.535156 23.714844 6.085938 22.863281 5.699219 Z M 22.863281 5.699219 "/>
<path style=" stroke:none;fill-rule:nonzero;fill:rgb(88.235294%,45.098039%,54.901961%);fill-opacity:1;" d="M 33.640625 19.328125 C 32.722656 18.398438 30.976562 18.640625 29.742188 19.867188 C 28.507812 21.089844 28.253906 22.835938 29.171875 23.761719 C 30.09375 24.6875 31.839844 24.445312 33.074219 23.222656 C 34.304688 21.996094 34.5625 20.253906 33.640625 19.328125 Z M 33.640625 19.328125 "/>
<path style=" stroke:none;fill-rule:nonzero;fill:rgb(88.235294%,45.098039%,54.901961%);fill-opacity:1;" d="M 25.648438 17.738281 C 24.730469 16.808594 22.984375 17.050781 21.75 18.277344 C 20.515625 19.5 20.261719 21.246094 21.179688 22.171875 C 22.097656 23.097656 23.84375 22.855469 25.078125 21.632812 C 26.3125 20.40625 26.566406 18.664062 25.648438 17.738281 Z M 25.648438 17.738281 "/>
<path style=" stroke:none;fill-rule:nonzero;fill:rgb(88.235294%,45.098039%,54.901961%);fill-opacity:1;" d="M 39.675781 25.40625 C 38.757812 24.480469 37.011719 24.722656 35.777344 25.949219 C 34.542969 27.171875 34.289062 28.914062 35.207031 29.84375 C 36.128906 30.769531 37.875 30.527344 39.109375 29.304688 C 40.339844 28.078125 40.597656 26.335938 39.675781 25.40625 Z M 39.675781 25.40625 "/>
<path style=" stroke:none;fill-rule:nonzero;fill:rgb(88.235294%,45.098039%,54.901961%);fill-opacity:1;" d="M 41.5625 33.78125 C 40.644531 32.851562 38.898438 33.09375 37.664062 34.320312 C 36.429688 35.542969 36.175781 37.289062 37.09375 38.214844 C 38.015625 39.140625 39.757812 38.898438 40.992188 37.675781 C 42.226562 36.449219 42.480469 34.707031 41.5625 33.78125 Z M 41.5625 33.78125 "/>
<path style=" stroke:none;fill-rule:nonzero;fill:rgb(88.235294%,45.098039%,54.901961%);fill-opacity:1;" d="M 32.730469 35.796875 C 30.546875 33.597656 32.8125 31.566406 30.289062 29.023438 C 27.769531 26.484375 25.71875 28.734375 23.535156 26.535156 C 21.835938 24.820312 17.078125 25.730469 16.035156 29.871094 C 14.988281 34.011719 19.285156 34.753906 21.878906 37.371094 C 24.472656 39.984375 25.1875 44.285156 29.335938 43.273438 C 33.480469 42.257812 34.429688 37.507812 32.730469 35.796875 Z M 32.730469 35.796875 "/>
<path style=" stroke:none;fill-rule:nonzero;fill:rgb(82.745098%,82.352941%,84.705882%);fill-opacity:1;" d="M 27.730469 54.652344 C 17.15625 47.78125 10.617188 40.808594 7.0625 34.363281 C 6.371094 33.105469 5.789062 31.867188 5.316406 30.652344 C 4.671875 31.308594 4.042969 31.945312 3.445312 32.554688 C 4.851562 35.105469 6.722656 37.738281 9.128906 40.414062 C 9.339844 40.648438 9.554688 40.878906 9.769531 41.113281 C 10.964844 42.398438 12.285156 43.691406 13.734375 44.988281 C 13.863281 45.105469 13.996094 45.222656 14.132812 45.34375 C 16.808594 47.703125 19.917969 50.082031 23.503906 52.449219 C 23.683594 52.566406 23.863281 52.683594 24.046875 52.800781 C 25.136719 53.511719 26.269531 54.21875 27.445312 54.925781 C 27.539062 54.835938 27.632812 54.746094 27.730469 54.652344 Z M 27.730469 54.652344 "/>
</g>
</svg>
