<svg id="Capa_1" enable-background="new 0 0 512 512" height="512" viewBox="0 0 512 512" width="512" xmlns="http://www.w3.org/2000/svg"><g><g><path d="m416 512h-320c-4.894 0-9.479-2.387-12.286-6.395s-3.483-9.133-1.811-13.731l40-110c2.156-5.928 7.789-9.874 14.097-9.874h240c6.308 0 11.941 3.946 14.097 9.874l40 110c1.673 4.599.996 9.724-1.811 13.731-2.807 4.008-7.392 6.395-12.286 6.395z" fill="#7dd5f4"/></g><path d="m428.286 505.605c2.807-4.008 3.483-9.133 1.811-13.731l-40-110c-2.156-5.928-7.789-9.874-14.097-9.874h-120v140h160c4.894 0 9.479-2.387 12.286-6.395z" fill="#6ba7ff"/><g><path d="m256 450c-5.383 0-10.354-2.885-13.023-7.558l-47.13-82.479c-34.713-11.962-65.751-34.531-87.898-64.036-24.173-32.2-36.949-70.558-36.949-110.927 0-102.01 82.99-185 185-185s185 82.99 185 185c0 40.369-12.776 78.727-36.948 110.928-22.147 29.505-53.186 52.074-87.898 64.036l-47.13 82.479c-2.67 4.672-7.641 7.557-13.024 7.557z" fill="#ffdd54"/></g><g><path d="m269.023 442.442 47.13-82.479c34.713-11.962 65.751-34.531 87.898-64.036 24.173-32.2 36.949-70.558 36.949-110.927 0-102.01-82.99-185-185-185v450c5.383 0 10.354-2.885 13.023-7.558z" fill="#ffa07a"/></g><g><g><g><path d="m256 280c-19.419 0-33.347-2.634-43.832-8.291-10.271-5.541-22.515-17.042-22.515-40.363.001-36.583 29.764-66.346 66.347-66.346s66.346 29.763 66.346 66.346c0 23.321-12.244 34.822-22.514 40.363-10.485 5.657-24.413 8.291-43.832 8.291z" fill="#c18678"/><path d="m186 192c-20.677 0-37.5-16.823-37.5-37.5s16.823-37.5 37.5-37.5 37.5 16.823 37.5 37.5-16.823 37.5-37.5 37.5z" fill="#a55c4f"/><path d="m256 165c-20.677 0-37.5-16.823-37.5-37.5s16.823-37.5 37.5-37.5 37.5 16.823 37.5 37.5-16.823 37.5-37.5 37.5z" fill="#a55c4f"/><path d="m288.5 154.5c0-20.677 16.823-37.5 37.5-37.5s37.5 16.823 37.5 37.5-16.823 37.5-37.5 37.5-37.5-16.823-37.5-37.5z" fill="#784033"/></g><g><path d="m299.832 271.709c10.271-5.541 22.514-17.042 22.514-40.363 0-36.583-29.763-66.346-66.346-66.346v115c19.419 0 33.347-2.634 43.832-8.291z" fill="#a55c4f"/><path d="m293.5 127.5c0-20.677-16.823-37.5-37.5-37.5v75c20.677 0 37.5-16.823 37.5-37.5z" fill="#784033"/></g></g></g></g></svg>